<svg xmlns="http://www.w3.org/2000/svg" width="160" height="160" viewBox="0 0 160 160" fill="none" stroke-linecap="round" stroke-linejoin="round"><path d="M139 79c1 37-24 61-59 62-36 1-61-23-60-60 1-35 23-61 59-62 38-1 59 25 60 60Z" fill="#FF7A1A" stroke="#FFFEFA" stroke-width="18"/><path d="M139 79c1 37-24 61-59 62-36 1-61-23-60-60 1-35 23-61 59-62 38-1 59 25 60 60Z" fill="#FF7A1A" stroke="#121116" stroke-width="4"/><circle cx="57" cy="68" r="6" fill="#121116" stroke="#121116" stroke-width="2"/><circle cx="104" cy="66" r="6" fill="#121116" stroke="#121116" stroke-width="2"/><path d="M51 94c13 18 44 20 59-3" stroke="#121116" stroke-width="6"/><circle cx="42" cy="87" r="8" fill="#FF3D9A" stroke="#121116" stroke-width="3"/></svg>
