<svg xmlns="http://www.w3.org/2000/svg" width="160" height="160" viewBox="0 0 160 160" fill="none" stroke-linecap="round" stroke-linejoin="round"><path d="M18 81c17-31 37-48 64-47 28 1 48 19 60 49-16 28-37 43-64 42-27-1-47-16-60-44Z" fill="#61DBE8" stroke="#FFFEFA" stroke-width="18"/><path d="M18 81c17-31 37-48 64-47 28 1 48 19 60 49-16 28-37 43-64 42-27-1-47-16-60-44Z" fill="#61DBE8" stroke="#121116" stroke-width="4"/><ellipse cx="80" cy="80" rx="25" ry="29" fill="#FFFEFA" stroke="#121116" stroke-width="4"/><circle cx="84" cy="81" r="13" fill="#7C2CFF" stroke="#121116" stroke-width="4"/><circle cx="89" cy="74" r="4" fill="#FFFEFA" stroke="#FFFEFA" stroke-width="2"/></svg>
